<mxfile host="Electron" modified="2024-02-26T13:15:58.814Z" agent="Mozilla/5.0 (Windows NT 10.0; Win64; x64) AppleWebKit/537.36 (KHTML, like Gecko) draw.io/22.1.2 Chrome/114.0.5735.289 Electron/25.9.4 Safari/537.36" etag="AwhWgMQAAGfv5sHRIPUv" version="22.1.2" type="device">
  <diagram name="Страница — 1" id="RhvVXlbJFELSJmdbOGqQ">
    <mxGraphModel dx="3787" dy="1754" grid="1" gridSize="10" guides="1" tooltips="1" connect="1" arrows="1" fold="1" page="1" pageScale="1" pageWidth="827" pageHeight="1169" math="0" shadow="0">
      <root>
        <mxCell id="0" />
        <mxCell id="1" parent="0" />
        <mxCell id="bGC_WcfQTSgr0px14OSZ-2" style="edgeStyle=orthogonalEdgeStyle;rounded=0;orthogonalLoop=1;jettySize=auto;html=1;exitX=0.5;exitY=1;exitDx=0;exitDy=0;fontFamily=Times New Roman;fontSize=24;fontColor=default;" edge="1" parent="1" source="bGC_WcfQTSgr0px14OSZ-1">
          <mxGeometry relative="1" as="geometry">
            <mxPoint x="360" y="190" as="targetPoint" />
          </mxGeometry>
        </mxCell>
        <mxCell id="bGC_WcfQTSgr0px14OSZ-1" value="начало" style="ellipse;whiteSpace=wrap;html=1;fontFamily=Times New Roman;fontSize=24;" vertex="1" parent="1">
          <mxGeometry x="300" y="40" width="120" height="80" as="geometry" />
        </mxCell>
        <mxCell id="bGC_WcfQTSgr0px14OSZ-4" style="edgeStyle=orthogonalEdgeStyle;rounded=0;orthogonalLoop=1;jettySize=auto;html=1;exitX=0.5;exitY=1;exitDx=0;exitDy=0;fontFamily=Times New Roman;fontSize=24;fontColor=default;" edge="1" parent="1" source="bGC_WcfQTSgr0px14OSZ-3">
          <mxGeometry relative="1" as="geometry">
            <mxPoint x="360" y="320" as="targetPoint" />
          </mxGeometry>
        </mxCell>
        <mxCell id="bGC_WcfQTSgr0px14OSZ-3" value="using namespace std;" style="shape=parallelogram;perimeter=parallelogramPerimeter;whiteSpace=wrap;html=1;fixedSize=1;strokeColor=default;align=center;verticalAlign=middle;fontFamily=Times New Roman;fontSize=24;fontColor=default;fillColor=default;" vertex="1" parent="1">
          <mxGeometry x="237.5" y="190" width="245" height="60" as="geometry" />
        </mxCell>
        <mxCell id="bGC_WcfQTSgr0px14OSZ-10" style="edgeStyle=orthogonalEdgeStyle;rounded=0;orthogonalLoop=1;jettySize=auto;html=1;exitX=0.5;exitY=1;exitDx=0;exitDy=0;fontFamily=Times New Roman;fontSize=24;fontColor=default;" edge="1" parent="1" source="bGC_WcfQTSgr0px14OSZ-9">
          <mxGeometry relative="1" as="geometry">
            <mxPoint x="359.52631578947376" y="480" as="targetPoint" />
          </mxGeometry>
        </mxCell>
        <mxCell id="bGC_WcfQTSgr0px14OSZ-9" value="int main(){" style="ellipse;whiteSpace=wrap;html=1;strokeColor=default;align=center;verticalAlign=middle;fontFamily=Times New Roman;fontSize=24;fontColor=default;fillColor=default;" vertex="1" parent="1">
          <mxGeometry x="300" y="320" width="120" height="80" as="geometry" />
        </mxCell>
        <mxCell id="bGC_WcfQTSgr0px14OSZ-12" value="" style="endArrow=none;html=1;rounded=0;fontFamily=Times New Roman;fontSize=24;fontColor=default;" edge="1" parent="1">
          <mxGeometry width="50" height="50" relative="1" as="geometry">
            <mxPoint x="560" y="340" as="sourcePoint" />
            <mxPoint x="560" y="240" as="targetPoint" />
          </mxGeometry>
        </mxCell>
        <mxCell id="bGC_WcfQTSgr0px14OSZ-13" value="" style="endArrow=none;html=1;rounded=0;fontFamily=Times New Roman;fontSize=24;fontColor=default;" edge="1" parent="1">
          <mxGeometry width="50" height="50" relative="1" as="geometry">
            <mxPoint x="360" y="290" as="sourcePoint" />
            <mxPoint x="560" y="290" as="targetPoint" />
          </mxGeometry>
        </mxCell>
        <mxCell id="bGC_WcfQTSgr0px14OSZ-14" value="" style="endArrow=none;html=1;rounded=0;fontFamily=Times New Roman;fontSize=24;fontColor=default;" edge="1" parent="1">
          <mxGeometry width="50" height="50" relative="1" as="geometry">
            <mxPoint x="560" y="240" as="sourcePoint" />
            <mxPoint x="600" y="240" as="targetPoint" />
          </mxGeometry>
        </mxCell>
        <mxCell id="bGC_WcfQTSgr0px14OSZ-16" value="" style="endArrow=none;html=1;rounded=0;fontFamily=Times New Roman;fontSize=24;fontColor=default;" edge="1" parent="1">
          <mxGeometry width="50" height="50" relative="1" as="geometry">
            <mxPoint x="560" y="340" as="sourcePoint" />
            <mxPoint x="600" y="340" as="targetPoint" />
          </mxGeometry>
        </mxCell>
        <mxCell id="bGC_WcfQTSgr0px14OSZ-17" value="#include &amp;lt;iostream&amp;gt;;" style="text;html=1;align=left;verticalAlign=middle;resizable=0;points=[];autosize=1;strokeColor=none;fillColor=none;fontSize=24;fontFamily=Times New Roman;fontColor=default;" vertex="1" parent="1">
          <mxGeometry x="570" y="250" width="230" height="40" as="geometry" />
        </mxCell>
        <mxCell id="bGC_WcfQTSgr0px14OSZ-20" value="#include &amp;lt;string&amp;gt;;" style="text;html=1;align=left;verticalAlign=middle;resizable=0;points=[];autosize=1;strokeColor=none;fillColor=none;fontSize=24;fontFamily=Times New Roman;fontColor=default;" vertex="1" parent="1">
          <mxGeometry x="570" y="290" width="200" height="40" as="geometry" />
        </mxCell>
        <mxCell id="bGC_WcfQTSgr0px14OSZ-24" style="edgeStyle=orthogonalEdgeStyle;rounded=0;orthogonalLoop=1;jettySize=auto;html=1;exitX=0.5;exitY=1;exitDx=0;exitDy=0;fontFamily=Times New Roman;fontSize=24;fontColor=default;" edge="1" parent="1" source="bGC_WcfQTSgr0px14OSZ-23">
          <mxGeometry relative="1" as="geometry">
            <mxPoint x="360" y="600" as="targetPoint" />
          </mxGeometry>
        </mxCell>
        <mxCell id="bGC_WcfQTSgr0px14OSZ-23" value="tryQueen(0);" style="shape=process;whiteSpace=wrap;html=1;backgroundOutline=1;strokeColor=default;align=center;verticalAlign=middle;fontFamily=Times New Roman;fontSize=24;fontColor=default;fillColor=default;" vertex="1" parent="1">
          <mxGeometry x="265" y="480" width="190" height="60" as="geometry" />
        </mxCell>
        <mxCell id="bGC_WcfQTSgr0px14OSZ-26" style="edgeStyle=orthogonalEdgeStyle;rounded=0;orthogonalLoop=1;jettySize=auto;html=1;exitX=0.5;exitY=1;exitDx=0;exitDy=0;fontFamily=Times New Roman;fontSize=24;fontColor=default;" edge="1" parent="1" source="bGC_WcfQTSgr0px14OSZ-25">
          <mxGeometry relative="1" as="geometry">
            <mxPoint x="360" y="760" as="targetPoint" />
          </mxGeometry>
        </mxCell>
        <mxCell id="bGC_WcfQTSgr0px14OSZ-57" style="edgeStyle=orthogonalEdgeStyle;rounded=0;orthogonalLoop=1;jettySize=auto;html=1;exitX=1;exitY=0.5;exitDx=0;exitDy=0;fontFamily=Times New Roman;fontSize=24;fontColor=default;" edge="1" parent="1" source="bGC_WcfQTSgr0px14OSZ-25">
          <mxGeometry relative="1" as="geometry">
            <mxPoint x="960" y="840" as="targetPoint" />
            <Array as="points">
              <mxPoint x="960" y="640" />
              <mxPoint x="960" y="840" />
            </Array>
          </mxGeometry>
        </mxCell>
        <mxCell id="bGC_WcfQTSgr0px14OSZ-25" value="for (int i = 0; i &amp;lt; 8; i ++){" style="shape=hexagon;perimeter=hexagonPerimeter2;whiteSpace=wrap;html=1;fixedSize=1;strokeColor=default;align=center;verticalAlign=middle;fontFamily=Times New Roman;fontSize=24;fontColor=default;fillColor=default;" vertex="1" parent="1">
          <mxGeometry x="230" y="600" width="260" height="80" as="geometry" />
        </mxCell>
        <mxCell id="bGC_WcfQTSgr0px14OSZ-29" style="edgeStyle=orthogonalEdgeStyle;rounded=0;orthogonalLoop=1;jettySize=auto;html=1;exitX=0.5;exitY=1;exitDx=0;exitDy=0;fontFamily=Times New Roman;fontSize=24;fontColor=default;" edge="1" parent="1" source="bGC_WcfQTSgr0px14OSZ-28">
          <mxGeometry relative="1" as="geometry">
            <mxPoint x="359.66666666666697" y="920" as="targetPoint" />
          </mxGeometry>
        </mxCell>
        <mxCell id="bGC_WcfQTSgr0px14OSZ-50" style="edgeStyle=orthogonalEdgeStyle;rounded=0;orthogonalLoop=1;jettySize=auto;html=1;exitX=0;exitY=0.5;exitDx=0;exitDy=0;fontFamily=Times New Roman;fontSize=24;fontColor=default;endArrow=none;endFill=0;startArrow=classic;startFill=1;" edge="1" parent="1" source="bGC_WcfQTSgr0px14OSZ-28">
          <mxGeometry relative="1" as="geometry">
            <mxPoint x="360" y="1200" as="targetPoint" />
            <Array as="points">
              <mxPoint x="-40" y="800" />
              <mxPoint x="-40" y="1320" />
              <mxPoint x="361" y="1320" />
            </Array>
          </mxGeometry>
        </mxCell>
        <mxCell id="bGC_WcfQTSgr0px14OSZ-52" style="edgeStyle=orthogonalEdgeStyle;rounded=0;orthogonalLoop=1;jettySize=auto;html=1;exitX=1;exitY=0.5;exitDx=0;exitDy=0;entryX=0;entryY=0.5;entryDx=0;entryDy=0;fontFamily=Times New Roman;fontSize=24;fontColor=default;" edge="1" parent="1" source="bGC_WcfQTSgr0px14OSZ-28" target="bGC_WcfQTSgr0px14OSZ-25">
          <mxGeometry relative="1" as="geometry">
            <Array as="points">
              <mxPoint x="760" y="800" />
              <mxPoint x="760" y="1400" />
              <mxPoint x="-110" y="1400" />
              <mxPoint x="-110" y="640" />
            </Array>
          </mxGeometry>
        </mxCell>
        <mxCell id="bGC_WcfQTSgr0px14OSZ-28" value="for (int j = 0; j &amp;lt; 8; j ++){" style="shape=hexagon;perimeter=hexagonPerimeter2;whiteSpace=wrap;html=1;fixedSize=1;strokeColor=default;align=center;verticalAlign=middle;fontFamily=Times New Roman;fontSize=24;fontColor=default;fillColor=default;" vertex="1" parent="1">
          <mxGeometry x="230" y="760" width="260" height="80" as="geometry" />
        </mxCell>
        <mxCell id="bGC_WcfQTSgr0px14OSZ-30" value="True" style="text;html=1;align=center;verticalAlign=middle;resizable=0;points=[];autosize=1;strokeColor=none;fillColor=none;fontSize=24;fontFamily=Times New Roman;fontColor=default;" vertex="1" parent="1">
          <mxGeometry x="360" y="700" width="70" height="40" as="geometry" />
        </mxCell>
        <mxCell id="bGC_WcfQTSgr0px14OSZ-33" value="True" style="text;html=1;align=center;verticalAlign=middle;resizable=0;points=[];autosize=1;strokeColor=none;fillColor=none;fontSize=24;fontFamily=Times New Roman;fontColor=default;" vertex="1" parent="1">
          <mxGeometry x="360" y="860" width="70" height="40" as="geometry" />
        </mxCell>
        <mxCell id="bGC_WcfQTSgr0px14OSZ-35" style="edgeStyle=orthogonalEdgeStyle;rounded=0;orthogonalLoop=1;jettySize=auto;html=1;exitX=0;exitY=0.5;exitDx=0;exitDy=0;fontFamily=Times New Roman;fontSize=24;fontColor=default;" edge="1" parent="1" source="bGC_WcfQTSgr0px14OSZ-34">
          <mxGeometry relative="1" as="geometry">
            <mxPoint x="120" y="1080" as="targetPoint" />
            <Array as="points">
              <mxPoint x="120" y="995" />
            </Array>
          </mxGeometry>
        </mxCell>
        <mxCell id="bGC_WcfQTSgr0px14OSZ-38" style="edgeStyle=orthogonalEdgeStyle;rounded=0;orthogonalLoop=1;jettySize=auto;html=1;exitX=1;exitY=0.5;exitDx=0;exitDy=0;fontFamily=Times New Roman;fontSize=24;fontColor=default;" edge="1" parent="1" source="bGC_WcfQTSgr0px14OSZ-34">
          <mxGeometry relative="1" as="geometry">
            <mxPoint x="600" y="1080" as="targetPoint" />
          </mxGeometry>
        </mxCell>
        <mxCell id="bGC_WcfQTSgr0px14OSZ-34" value="if (board[i][j] == -1){" style="rhombus;whiteSpace=wrap;html=1;strokeColor=default;align=center;verticalAlign=middle;fontFamily=Times New Roman;fontSize=24;fontColor=default;fillColor=default;" vertex="1" parent="1">
          <mxGeometry x="205" y="920" width="310" height="150" as="geometry" />
        </mxCell>
        <mxCell id="bGC_WcfQTSgr0px14OSZ-36" value="True" style="text;html=1;align=center;verticalAlign=middle;resizable=0;points=[];autosize=1;strokeColor=none;fillColor=none;fontSize=24;fontFamily=Times New Roman;fontColor=default;" vertex="1" parent="1">
          <mxGeometry x="135" y="950" width="70" height="40" as="geometry" />
        </mxCell>
        <mxCell id="bGC_WcfQTSgr0px14OSZ-44" style="edgeStyle=orthogonalEdgeStyle;rounded=0;orthogonalLoop=1;jettySize=auto;html=1;exitX=0.5;exitY=1;exitDx=0;exitDy=0;entryX=0.5;entryY=1;entryDx=0;entryDy=0;fontFamily=Times New Roman;fontSize=24;fontColor=default;endArrow=none;endFill=0;" edge="1" parent="1" source="bGC_WcfQTSgr0px14OSZ-37" target="bGC_WcfQTSgr0px14OSZ-43">
          <mxGeometry relative="1" as="geometry">
            <Array as="points">
              <mxPoint x="120" y="1200" />
              <mxPoint x="600" y="1200" />
            </Array>
          </mxGeometry>
        </mxCell>
        <mxCell id="bGC_WcfQTSgr0px14OSZ-37" value="cout &amp;lt;&amp;lt; &quot;Q&quot;;" style="shape=parallelogram;perimeter=parallelogramPerimeter;whiteSpace=wrap;html=1;fixedSize=1;strokeColor=default;align=center;verticalAlign=middle;fontFamily=Times New Roman;fontSize=24;fontColor=default;fillColor=default;" vertex="1" parent="1">
          <mxGeometry x="20" y="1080" width="200" height="60" as="geometry" />
        </mxCell>
        <mxCell id="bGC_WcfQTSgr0px14OSZ-39" value="False" style="text;html=1;align=center;verticalAlign=middle;resizable=0;points=[];autosize=1;strokeColor=none;fillColor=none;fontSize=24;fontFamily=Times New Roman;fontColor=default;" vertex="1" parent="1">
          <mxGeometry x="515" y="950" width="70" height="40" as="geometry" />
        </mxCell>
        <mxCell id="bGC_WcfQTSgr0px14OSZ-43" value="cout &amp;lt;&amp;lt; &quot;. &quot;;" style="shape=parallelogram;perimeter=parallelogramPerimeter;whiteSpace=wrap;html=1;fixedSize=1;strokeColor=default;align=center;verticalAlign=middle;fontFamily=Times New Roman;fontSize=24;fontColor=default;fillColor=default;" vertex="1" parent="1">
          <mxGeometry x="500" y="1080" width="200" height="60" as="geometry" />
        </mxCell>
        <mxCell id="bGC_WcfQTSgr0px14OSZ-56" value="False" style="text;html=1;align=center;verticalAlign=middle;resizable=0;points=[];autosize=1;strokeColor=none;fillColor=none;fontSize=24;fontFamily=Times New Roman;fontColor=default;" vertex="1" parent="1">
          <mxGeometry x="595" y="753" width="70" height="40" as="geometry" />
        </mxCell>
        <mxCell id="bGC_WcfQTSgr0px14OSZ-64" value="" style="edgeStyle=orthogonalEdgeStyle;rounded=0;orthogonalLoop=1;jettySize=auto;html=1;fontFamily=Times New Roman;fontSize=24;fontColor=default;" edge="1" parent="1" source="bGC_WcfQTSgr0px14OSZ-58" target="bGC_WcfQTSgr0px14OSZ-63">
          <mxGeometry relative="1" as="geometry" />
        </mxCell>
        <mxCell id="bGC_WcfQTSgr0px14OSZ-58" value="cout &amp;lt;&amp;lt; endl;" style="shape=parallelogram;perimeter=parallelogramPerimeter;whiteSpace=wrap;html=1;fixedSize=1;strokeColor=default;align=center;verticalAlign=middle;fontFamily=Times New Roman;fontSize=24;fontColor=default;fillColor=default;" vertex="1" parent="1">
          <mxGeometry x="860" y="840" width="200" height="60" as="geometry" />
        </mxCell>
        <mxCell id="bGC_WcfQTSgr0px14OSZ-59" value="}" style="text;html=1;align=center;verticalAlign=middle;resizable=0;points=[];autosize=1;strokeColor=none;fillColor=none;fontSize=24;fontFamily=Times New Roman;fontColor=default;" vertex="1" parent="1">
          <mxGeometry x="770" y="1063" width="40" height="40" as="geometry" />
        </mxCell>
        <mxCell id="bGC_WcfQTSgr0px14OSZ-60" value="}" style="text;html=1;align=center;verticalAlign=middle;resizable=0;points=[];autosize=1;strokeColor=none;fillColor=none;fontSize=24;fontFamily=Times New Roman;fontColor=default;" vertex="1" parent="1">
          <mxGeometry x="960" y="780" width="40" height="40" as="geometry" />
        </mxCell>
        <mxCell id="bGC_WcfQTSgr0px14OSZ-61" value="}" style="text;html=1;align=center;verticalAlign=middle;resizable=0;points=[];autosize=1;strokeColor=none;fillColor=none;fontSize=24;fontFamily=Times New Roman;fontColor=default;" vertex="1" parent="1">
          <mxGeometry x="1020" y="990" width="40" height="40" as="geometry" />
        </mxCell>
        <mxCell id="bGC_WcfQTSgr0px14OSZ-62" value="}" style="text;html=1;align=center;verticalAlign=middle;resizable=0;points=[];autosize=1;strokeColor=none;fillColor=none;fontSize=24;fontFamily=Times New Roman;fontColor=default;" vertex="1" parent="1">
          <mxGeometry x="340" y="1153" width="40" height="40" as="geometry" />
        </mxCell>
        <mxCell id="bGC_WcfQTSgr0px14OSZ-63" value="return 0;" style="whiteSpace=wrap;html=1;fontSize=24;fontFamily=Times New Roman;" vertex="1" parent="1">
          <mxGeometry x="900" y="980" width="120" height="60" as="geometry" />
        </mxCell>
        <mxCell id="bGC_WcfQTSgr0px14OSZ-66" value="False" style="text;html=1;align=center;verticalAlign=middle;resizable=0;points=[];autosize=1;strokeColor=none;fillColor=none;fontSize=24;fontFamily=Times New Roman;fontColor=default;" vertex="1" parent="1">
          <mxGeometry x="595" y="590" width="70" height="40" as="geometry" />
        </mxCell>
      </root>
    </mxGraphModel>
  </diagram>
</mxfile>
